<svg width="25" height="14" viewBox="0 0 25 14" fill="none" xmlns="http://www.w3.org/2000/svg">
<path d="M2.3215 5.63068L4.16037 4.79745L5.77896 2.21154C6.24825 1.45493 7.0767 1 7.9674 1H14.8488C15.6533 1.00479 16.4099 1.37831 16.9031 2.02L18.9862 4.75435L22.482 5.7073C23.3775 5.95153 23.9952 6.76082 24 7.68983V9.02109C24 10.156 23.0662 11.0563 21.9313 11.0563H21.644C21.28 12.4498 19.853 13.2783 18.4595 12.9143C17.5496 12.6749 16.8409 11.9661 16.6014 11.0563H8.7719C8.40796 12.4498 6.98092 13.2783 5.58741 12.9143C4.67755 12.6749 3.96882 11.9661 3.72939 11.0563H3.17869C2.04376 11.0563 1.10996 10.156 1.10996 9.02109V7.50307C1.11475 6.69378 1.58883 5.96589 2.3215 5.63068ZM19.1203 12.0619C20.0302 12.0619 20.7676 11.3245 20.7676 10.4146C20.7676 9.50475 20.0302 8.76729 19.1203 8.76729C18.2104 8.76729 17.473 9.50475 17.473 10.4146C17.473 11.3245 18.2104 12.0619 19.1203 12.0619ZM6.25304 12.0619C7.16289 12.0619 7.90035 11.3245 7.90035 10.4146C7.90035 9.50475 7.16289 8.76729 6.25304 8.76729C5.34318 8.76729 4.60572 9.50475 4.60572 10.4146C4.60572 11.3245 5.34318 12.0619 6.25304 12.0619ZM2.0677 9.02109C2.0677 9.62447 2.57531 10.0986 3.17869 10.0986H3.66234C3.82516 8.66673 5.11811 7.64194 6.54515 7.80476C7.7519 7.94363 8.70486 8.8918 8.83894 10.0986H16.5344C16.6972 8.66673 17.9902 7.64194 19.4172 7.80476C20.624 7.94363 21.5769 8.8918 21.711 10.0986H21.9313C22.5347 10.0986 23.0423 9.62926 23.0423 9.02109V7.68983C23.0375 7.19659 22.707 6.76082 22.2282 6.63152L18.5792 5.63547C18.4786 5.60674 18.3876 5.54927 18.3206 5.46308L16.1417 2.59943C15.8352 2.19718 15.3564 1.95774 14.8488 1.95774H7.9674C7.40712 1.95774 6.88515 2.24506 6.59304 2.72394L4.89783 5.42956C4.84995 5.51097 4.77811 5.57322 4.69192 5.61153L2.71897 6.50702C2.32629 6.6842 2.07249 7.07687 2.0677 7.50786V9.02109Z" fill="white" stroke="white" stroke-width="0.7"/>
</svg>
