<svg width="17" height="20" viewBox="0 0 17 20" fill="none" xmlns="http://www.w3.org/2000/svg">
<g>
<path d="M14.6543 4.22362C13.2388 2.17511 10.9956 1 8.50022 1C6.00482 1 3.7616 2.17511 2.34618 4.22362C0.937721 6.26177 0.612502 8.84212 1.47449 11.1218C1.70505 11.7444 2.07155 12.3492 2.56121 12.916L8.00669 19.3123C8.12984 19.4571 8.31029 19.5405 8.50022 19.5405C8.69015 19.5405 8.87059 19.4571 8.99375 19.3123L14.4377 12.9178C14.9295 12.3477 15.2956 11.7435 15.5242 11.126C16.3879 8.84213 16.0627 6.26177 14.6543 4.22362ZM14.3102 10.6719C14.1339 11.1484 13.8461 11.6195 13.4552 12.0726C13.4541 12.0737 13.453 12.0748 13.4521 12.0761L8.50022 17.8924L3.54527 12.0724C3.15458 11.6197 2.86673 11.1487 2.68868 10.6676C1.97581 8.78227 2.24635 6.64881 3.41259 4.96093C4.58249 3.26766 6.43697 2.29653 8.50022 2.29653C10.5634 2.29653 12.4177 3.26763 13.5876 4.96093C14.7541 6.64881 15.0248 8.78227 14.3102 10.6719Z" fill="white" stroke="white" stroke-width="0.7"/>
<path d="M8.5012 5.54004C6.88196 5.54004 5.56445 6.85737 5.56445 8.47678C5.56445 10.0962 6.88179 11.4135 8.5012 11.4135C10.1206 11.4135 11.4379 10.0962 11.4379 8.47678C11.4379 6.85755 10.1204 5.54004 8.5012 5.54004ZM8.5012 10.3647C7.46022 10.3647 6.61328 9.51773 6.61328 8.47675C6.61328 7.43577 7.46022 6.58884 8.5012 6.58884C9.54217 6.58884 10.3891 7.43577 10.3891 8.47675C10.3891 9.51773 9.54217 10.3647 8.5012 10.3647Z" fill="white" stroke="white" stroke-width="0.7"/>
</g>
</svg>
